<svg xmlns="http://www.w3.org/2000/svg" width="153.32" height="35" viewBox="0 0 153.32 35"><rect class="svg__rect" x="0" y="0" width="45.39" height="35" fill="#8CDF63"/><rect class="svg__rect" x="43.39" y="0" width="109.93" height="35" fill="#C138D5"/><path class="svg__text" d="M13.91 18.00L13.91 18.00L13.91 17.52Q13.91 16.28 14.35 15.32Q14.80 14.37 15.60 13.86Q16.41 13.35 17.45 13.35L17.45 13.35Q18.50 13.35 19.31 13.85Q20.11 14.35 20.55 15.29Q20.99 16.23 21.00 17.48L21.00 17.48L21.00 17.96Q21.00 19.17 20.61 20.06Q20.23 20.95 19.54 21.47L19.54 21.47L21.00 22.61L20.04 23.48L18.23 22.04Q17.87 22.12 17.46 22.12L17.46 22.12Q16.43 22.12 15.61 21.61Q14.80 21.10 14.36 20.17Q13.92 19.23 13.91 18.00ZM15.39 17.46L15.39 17.96Q15.39 19.34 15.94 20.12Q16.48 20.90 17.46 20.90L17.46 20.90Q18.45 20.90 18.98 20.15Q19.51 19.40 19.51 17.96L19.51 17.96L19.51 17.51Q19.51 16.07 18.97 15.33Q18.43 14.58 17.45 14.58L17.45 14.58Q16.49 14.58 15.95 15.33Q15.41 16.09 15.39 17.46L15.39 17.46ZM27.17 14.66L24.54 14.66L24.54 13.47L31.30 13.47L31.30 14.66L28.64 14.66L28.64 22L27.17 22L27.17 14.66Z" fill="#FFFFFF"/><path class="svg__text" d="M57.15 17.80L57.15 17.80Q57.15 16.54 57.75 15.54Q58.35 14.55 59.41 13.99Q60.48 13.43 61.83 13.43L61.83 13.43Q63.00 13.43 63.94 13.83Q64.88 14.22 65.50 14.97L65.50 14.97L63.99 16.33Q63.14 15.40 61.97 15.40L61.97 15.40Q61.95 15.40 61.95 15.40L61.95 15.40Q60.87 15.40 60.21 16.06Q59.55 16.71 59.55 17.80L59.55 17.80Q59.55 18.50 59.85 19.04Q60.15 19.59 60.69 19.89Q61.23 20.20 61.93 20.20L61.93 20.20Q62.61 20.20 63.21 19.93L63.21 19.93L63.21 17.62L65.31 17.62L65.31 21.10Q64.59 21.61 63.65 21.89Q62.72 22.17 61.78 22.17L61.78 22.17Q60.46 22.17 59.40 21.61Q58.35 21.05 57.75 20.05Q57.15 19.06 57.15 17.80ZM72.68 22L70.30 22L70.30 13.60L74.14 13.60Q75.28 13.60 76.12 13.98Q76.96 14.35 77.42 15.06Q77.87 15.76 77.87 16.71L77.87 16.71Q77.87 17.62 77.45 18.30Q77.02 18.98 76.23 19.36L76.23 19.36L78.04 22L75.50 22L73.97 19.77L72.68 19.77L72.68 22ZM72.68 15.47L72.68 17.93L74.00 17.93Q74.73 17.93 75.10 17.61Q75.47 17.29 75.47 16.71L75.47 16.71Q75.47 16.12 75.10 15.79Q74.73 15.47 74.00 15.47L74.00 15.47L72.68 15.47ZM84.08 22L81.65 22L85.36 13.60L87.71 13.60L91.42 22L88.95 22L88.29 20.37L84.74 20.37L84.08 22ZM86.52 15.93L85.43 18.61L87.60 18.61L86.52 15.93ZM97.95 22L95.58 22L95.58 13.60L99.42 13.60Q100.56 13.60 101.40 13.98Q102.24 14.35 102.70 15.06Q103.15 15.76 103.15 16.71L103.15 16.71Q103.15 17.66 102.70 18.35Q102.24 19.05 101.40 19.42Q100.56 19.80 99.42 19.80L99.42 19.80L97.95 19.80L97.95 22ZM97.95 15.47L97.95 17.93L99.27 17.93Q100.01 17.93 100.38 17.61Q100.75 17.29 100.75 16.71L100.75 16.71Q100.75 16.12 100.38 15.80Q100.01 15.47 99.27 15.47L99.27 15.47L97.95 15.47ZM110.28 22L107.90 22L107.90 13.60L110.28 13.60L110.28 16.76L113.52 16.76L113.52 13.60L115.90 13.60L115.90 22L113.52 22L113.52 18.72L110.28 18.72L110.28 22ZM120.63 17.80L120.63 17.80Q120.63 16.55 121.23 15.55Q121.84 14.56 122.90 14.00Q123.96 13.43 125.29 13.43L125.29 13.43Q126.62 13.43 127.69 14.00Q128.75 14.56 129.36 15.55Q129.96 16.55 129.96 17.80L129.96 17.80Q129.96 19.22 129.19 20.30Q128.42 21.39 127.11 21.85L127.11 21.85Q127.35 22.12 127.58 22.23Q127.81 22.33 128.09 22.33L128.09 22.33Q128.80 22.33 129.37 21.75L129.37 21.75L130.40 22.97Q129.98 23.49 129.37 23.76Q128.76 24.03 128.04 24.03L128.04 24.03Q127.35 24.03 126.78 23.85Q126.22 23.67 125.65 23.25Q125.08 22.84 124.37 22.09L124.37 22.09Q123.28 21.91 122.43 21.31Q121.57 20.72 121.10 19.81Q120.63 18.89 120.63 17.80ZM123.03 17.80L123.03 17.80Q123.03 18.51 123.33 19.05Q123.63 19.60 124.15 19.90Q124.66 20.20 125.29 20.20L125.29 20.20Q125.93 20.20 126.45 19.90Q126.96 19.60 127.26 19.05Q127.56 18.51 127.56 17.80L127.56 17.80Q127.56 17.09 127.26 16.54Q126.96 16 126.45 15.70Q125.93 15.40 125.29 15.40L125.29 15.40Q124.66 15.40 124.14 15.70Q123.63 16 123.33 16.54Q123.03 17.09 123.03 17.80ZM141.08 22L134.69 22L134.69 13.60L137.07 13.60L137.07 20.11L141.08 20.11L141.08 22Z" fill="#FFFFFF" x="56.39"/></svg>
